<?xml version="1.0" encoding="UTF-8" standalone="no" ?>
<!DOCTYPE svg PUBLIC "-//W3C//DTD SVG 1.1//EN" "http://www.w3.org/Graphics/SVG/1.1/DTD/svg11.dtd">
<svg xmlns="http://www.w3.org/2000/svg" xmlns:xlink="http://www.w3.org/1999/xlink" version="1.1" width="500" height="500" viewBox="0 0 500 500" xml:space="preserve">
<desc>Created with Fabric.js 4.6.0</desc>
<defs>
</defs>
<g transform="matrix(1.14 0 0 1.14 249.51 250.49)" id="nulmWtW45UW8yMFc5AyQ0"  >
<path style="stroke: rgb(238,55,46); stroke-width: 0; stroke-dasharray: none; stroke-linecap: butt; stroke-dashoffset: 0; stroke-linejoin: miter; stroke-miterlimit: 4; fill: rgb(48,50,81); fill-rule: nonzero; opacity: 1;" vector-effect="non-scaling-stroke"  transform=" translate(0, 0)" d="M -216.76891 -124.80165 C -216.76891 -175.59377 -175.59376 -216.76891 -124.80165000000001 -216.76891 L 124.80164999999998 -216.76891 L 124.80164999999998 -216.76891 C 175.59376999999998 -216.76891 216.76890999999998 -175.59376 216.76890999999998 -124.80165000000001 L 216.76890999999998 124.80164999999998 L 216.76890999999998 124.80164999999998 C 216.76890999999998 175.59376999999998 175.59375999999997 216.76890999999998 124.80164999999998 216.76890999999998 L -124.80165000000001 216.76890999999998 L -124.80165000000001 216.76890999999998 C -175.59377 216.76890999999998 -216.76891 175.59375999999997 -216.76891 124.80164999999998 z" stroke-linecap="round" />
</g>
<g transform="matrix(2.01 0 0 0.3 275.15 135.74)" id="5E_Jjr0cbOKWd5C_cBaYP"  >
<path style="stroke: rgb(199,164,27); stroke-width: 0; stroke-dasharray: none; stroke-linecap: butt; stroke-dashoffset: 0; stroke-linejoin: miter; stroke-miterlimit: 4; fill: rgb(36,40,108); fill-rule: nonzero; opacity: 1;" vector-effect="non-scaling-stroke"  transform=" translate(0, 0)" d="M -71.57464 -71.57464 L 71.57465 -71.57464 L 71.57465 71.57465 L -71.57464 71.57465 z" stroke-linecap="round" />
</g>
<g transform="matrix(0 1.62 0.3 0 152.77 230.89)" id="Du1I1OllhCk2NrmWKvR_x"  >
<path style="stroke: rgb(199,164,27); stroke-width: 0; stroke-dasharray: none; stroke-linecap: butt; stroke-dashoffset: 0; stroke-linejoin: miter; stroke-miterlimit: 4; fill: rgb(36,40,108); fill-rule: nonzero; opacity: 1;" vector-effect="non-scaling-stroke"  transform=" translate(0, 0)" d="M -71.57464 -71.57464 L 71.57465 -71.57464 L 71.57465 71.57465 L -71.57464 71.57465 z" stroke-linecap="round" />
</g>
<g transform="matrix(0 1.62 0.3 0 397.53 230.68)" id="anxDp3StK8q3vGATS3V2Q"  >
<path style="stroke: rgb(199,164,27); stroke-width: 0; stroke-dasharray: none; stroke-linecap: butt; stroke-dashoffset: 0; stroke-linejoin: miter; stroke-miterlimit: 4; fill: rgb(36,40,108); fill-rule: nonzero; opacity: 1;" vector-effect="non-scaling-stroke"  transform=" translate(0, 0)" d="M -71.57464 -71.57464 L 71.57465 -71.57464 L 71.57465 71.57465 L -71.57464 71.57465 z" stroke-linecap="round" />
</g>
<g transform="matrix(1.14 0 0 1.14 118.61 346.55)" id="vp9knF7162w3w1HGfwH4K"  >
<path style="stroke: rgb(88,202,85); stroke-width: 0; stroke-dasharray: none; stroke-linecap: butt; stroke-dashoffset: 0; stroke-linejoin: miter; stroke-miterlimit: 4; fill: rgb(36,40,108); fill-rule: nonzero; opacity: 1;" vector-effect="non-scaling-stroke"  transform=" translate(0, 0)" d="M 0 -48.56851 C 26.80982 -48.56851 48.56851 -26.809820000000002 48.56851 0 C 48.56851 26.80982 26.809820000000002 48.56851 0 48.56851 C -26.80982 48.56851 -48.56851 26.809820000000002 -48.56851 0 C -48.56851 -26.80982 -26.809820000000002 -48.56851 0 -48.56851 z" stroke-linecap="round" />
</g>
<g transform="matrix(1.14 0 0 1.14 363.37 346.97)" id="5JRCCMW05rsAsQWBMhccb"  >
<path style="stroke: rgb(88,202,85); stroke-width: 0; stroke-dasharray: none; stroke-linecap: butt; stroke-dashoffset: 0; stroke-linejoin: miter; stroke-miterlimit: 4; fill: rgb(36,40,108); fill-rule: nonzero; opacity: 1;" vector-effect="non-scaling-stroke"  transform=" translate(0, 0)" d="M 0 -48.56851 C 26.80982 -48.56851 48.56851 -26.809820000000002 48.56851 0 C 48.56851 26.80982 26.809820000000002 48.56851 0 48.56851 C -26.80982 48.56851 -48.56851 26.809820000000002 -48.56851 0 C -48.56851 -26.80982 -26.809820000000002 -48.56851 0 -48.56851 z" stroke-linecap="round" />
</g>
<g transform="matrix(1.14 0 0 1.14 131.55 156.67)" id="Zfmfyvm5xtI6798s4aRGH"  >
<path style="stroke: rgb(0,0,0); stroke-width: 1; stroke-dasharray: none; stroke-linecap: butt; stroke-dashoffset: 0; stroke-linejoin: miter; stroke-miterlimit: 4; fill: rgb(255,255,255); fill-opacity: 0; fill-rule: nonzero; opacity: 1;" vector-effect="non-scaling-stroke"  transform=" translate(0, 0)" d="M 0 0" stroke-linecap="round" />
</g>
<g transform="matrix(1.14 0 0 1.14 130.98 157.24)" id="-X0VOdxGC25Qqwr2kMKMC"  >
<path style="stroke: rgb(0,0,0); stroke-width: 1; stroke-dasharray: none; stroke-linecap: butt; stroke-dashoffset: 0; stroke-linejoin: miter; stroke-miterlimit: 4; fill: rgb(255,255,255); fill-opacity: 0; fill-rule: nonzero; opacity: 1;" vector-effect="non-scaling-stroke"  transform=" translate(0, 0)" d="M 0 0" stroke-linecap="round" />
</g>
</svg>